<?xml version="1.0" encoding="UTF-8"?>
<svg width="24px" height="24px" viewBox="0 0 24 24" version="1.1" xmlns="http://www.w3.org/2000/svg" xmlns:xlink="http://www.w3.org/1999/xlink">
    <title>2964BE14-5A1B-419E-B43A-A5C77B6FA845</title>
    <g id="Page-1" stroke="none" stroke-width="1" fill="none" fill-rule="evenodd">
        <g id="Home-Without-Login-Web-" transform="translate(-249.000000, -197.000000)" fill="#949CA3" fill-rule="nonzero">
            <g id="Hotel-Card" transform="translate(229.000000, 177.000000)">
                <g id="3027159" transform="translate(20.000000, 20.000000)">
                    <path d="M21.1875,16.921875 L21.1875,15.515625 L19.78125,15.515625 L19.78125,14.8125 C19.78125,12.3373125 17.9445469,10.2832969 15.5625,9.9410625 L15.5625,8.484375 L14.15625,8.484375 L14.15625,9.9410625 C11.77425,10.2832969 9.9375,12.3372656 9.9375,14.8125 L9.9375,15.515625 L8.53125,15.515625 L8.53125,16.921875 L21.1875,16.921875 Z M11.34375,14.8125 C11.34375,12.8739844 12.9208594,11.296875 14.859375,11.296875 C16.7978906,11.296875 18.375,12.8739844 18.375,14.8125 L18.375,15.515625 L11.34375,15.515625 L11.34375,14.8125 Z" id="Shape"></path>
                    <path d="M15.5625,0 L0,0 L0,19.734375 L5.71875,19.734375 L5.71875,24 L24,24 L24,4.21875 L15.5625,4.21875 L15.5625,0 Z M5.71875,18.328125 L1.40625,18.328125 L1.40625,1.40625 L11.8808906,1.40625 L5.71875,4.48729688 L5.71875,18.328125 Z M14.15625,1.84082813 L14.15625,4.21875 L9.40035938,4.21875 L14.15625,1.84082813 Z M22.59375,5.625 L22.59375,22.59375 L7.125,22.59375 L7.125,5.625 L22.59375,5.625 Z" id="Shape"></path>
                    <polygon id="Path" points="9.9375 19.734375 19.78125 19.734375 19.78125 21.140625 9.9375 21.140625"></polygon>
                </g>
            </g>
        </g>
    </g>
</svg>